<svg xmlns="http://www.w3.org/2000/svg" viewBox="0 0 512 512">
  <defs>
    <linearGradient id="bg" x1="0" y1="0" x2="1" y2="1">
      <stop offset="0" stop-color="#063b67"/>
      <stop offset="1" stop-color="#021a31"/>
    </linearGradient>
    <linearGradient id="pin" x1="0" y1="0" x2="0" y2="1">
      <stop offset="0" stop-color="#ffb11b"/>
      <stop offset="1" stop-color="#ff6b19"/>
    </linearGradient>
  </defs>
  <rect width="512" height="512" rx="104" fill="url(#bg)"/>
  <circle cx="256" cy="238" r="174" fill="#0b89bd" opacity=".34"/>
  <path d="M256 58c-100 0-181 80-181 179 0 132 181 249 181 249s181-117 181-249c0-99-81-179-181-179z" fill="url(#pin)" stroke="#ffd353" stroke-width="12"/>
  <circle cx="256" cy="230" r="112" fill="#eafcff" stroke="#075694" stroke-width="13"/>
  <circle cx="256" cy="230" r="84" fill="#34c6dc"/>
  <path d="M196 170c23-18 49-24 76-20l16 25-14 18-35-5-21 20-28-8zm109 30 33 18 1 39-28 18-18-9-8-25 12-14zm-85 47 24 8 13 29-20 28-34-15-13-27z" fill="#53c96d"/>
  <path d="M181 284 324 163l-42 95z" fill="#fff" stroke="#053d72" stroke-width="9" stroke-linejoin="round"/>
  <path d="m181 284 101-26-37 69z" fill="#0756a0" stroke="#053d72" stroke-width="9" stroke-linejoin="round"/>
  <circle cx="256" cy="258" r="10" fill="#ff8a1f"/>
</svg>
